<?xml version="1.0" encoding="utf-8"?>
<svg version="1.1" xmlns:xlink="http://www.w3.org/1999/xlink" width="300px" height="170px" xmlns="http://www.w3.org/2000/svg">
  <g transform="matrix(1 0 0 1 -185 -131 )">
    <path d="M 185 131  L 485 131  L 485 301  L 185 301  L 185 131  " fill-rule="nonzero" fill="#cccccc" stroke="none" />
    <path d="M 197 143  L 473 143  L 473 289  L 197 289  L 197 143  " fill-rule="nonzero" fill="#ffffff" stroke="none" />
    <path d="M 353.75 182  C 346.61 182  341 176.39  341 169.25  C 341 162.11  346.61 156.5  353.75 156.5  C 360.89 156.5  366.5 162.11  366.5 169.25  C 366.5 176.39  360.89 182  353.75 182  " fill-rule="nonzero" fill="#cccccc" stroke="none" />
    <path d="M 202 285  L 202 209.65  L 268.75 175.4  L 362.2 238.42  L 415.6 195.95  L 469 238.42  L 469 285  L 202 285  " fill-rule="nonzero" fill="#169bd5" stroke="none" />
  </g>
</svg>